:SAMPLES-PER-SECOND 30
:FULLY-SPECIFIED
:DEGREES
101
root  -39.3481 39.8185 -33.7768 2.67773 -57.987 -1.47394
RightUpLeg  -17.5172 7.05929 -3.36793
RightLeg  29.2856 7.71389 4.44061
RightFoot  -10.7248 -0.0783041 1.45461
RightToes  0.00048216 0.542163 -0.142577
Spine  43.4511 -5.02912 9.0182
Spine1  5.8578 -1.24144 -1.49778
HEad  -22.8981 34.2344 -32.6303
LeftShoulder1  9.71959 -16.2809 -42.688
LeftArm  -13.0754 3.80105 -25.5873
LeftForeArm  8.99526 -60.0548 -19.1496
LeftHand  -0.25398 0.0180481 5.50724
RightShoulder  5.12092 10.0568 31.8189
RightArm  -10.501 -11.8177 24.5463
RightForeArm  10.6855 76.1778 60.2042
RightHand  0.432957 -16.4163 -5.58202
LeftUpLeg  -24.2154 13.0411 -1.4321
LeftLeg  12.9479 -15.6698 -6.79414
LeftFoot  14.9245 -0.419306 1.40733
LeftToes  1.06243e-005 4.65856e-005 -8.18503e-006
102
root  -39.3339 39.7687 -34.5035 -0.324173 -51.9647 -0.419266
RightUpLeg  -14.5995 3.27761 -2.5666
RightLeg  28.6703 3.92393 2.08532
RightFoot  -11.3684 -0.0756122 -0.690787
RightToes  0.00048216 0.542163 -0.142577
Spine  41.3979 -5.23443 10.2709
Spine1  5.63748 -1.38198 -1.34863
HEad  -21.9318 38.6602 -34.4161
LeftShoulder1  9.54608 -15.7548 -43.0986
LeftArm  -12.4753 6.08677 -25.4337
LeftForeArm  11.8442 -62.8966 -21.5479
LeftHand  -0.25398 0.0180481 5.50724
RightShoulder  5.01898 9.66414 32.1724
RightArm  -9.47728 -15.5862 23.7117
RightForeArm  19.1751 77.1847 70.2317
RightHand  0.5224 -15.4593 -7.07836
LeftUpLeg  -21.88 7.51482 -0.985215
LeftLeg  10.4173 -16.339 -6.28964
LeftFoot  17.0709 0.291113 -1.53233
LeftToes  1.06243e-005 4.65856e-005 -8.18503e-006
103
root  -39.267 39.7496 -35.1901 -2.3004 -46.1023 0.200943
RightUpLeg  -12.9455 -1.24049 -2.62976
RightLeg  28.5199 2.54696 1.26228
RightFoot  -11.4628 -0.0782059 -0.5058
RightToes  0.00048216 0.542163 -0.142577
Spine  39.1991 -5.23382 11.88
Spine1  5.95417 -0.914002 -2.05294
HEad  -22.6662 43.2347 -36.374
LeftShoulder1  9.3711 -15.2797 -43.3982
LeftArm  -11.7879 6.46091 -25.8595
LeftForeArm  14.1563 -64.7387 -23.3803
LeftHand  -0.25398 0.0180481 5.50724
RightShoulder  4.89765 9.35098 32.1573
RightArm  -8.74934 -18.7904 22.9827
RightForeArm  24.9625 77.6187 78.4564
RightHand  0.564014 -13.0786 -9.54914
LeftUpLeg  -19.994 2.76286 -0.740615
LeftLeg  7.13654 -16.1285 -5.5035
LeftFoot  17.9167 1.97342 -8.0188
LeftToes  1.06243e-005 4.65856e-005 -8.18503e-006
104
root  -39.1622 39.7787 -35.7912 -3.2193 -40.3542 0.136398
RightUpLeg  -11.7772 -6.55509 -2.85185
RightLeg  28.3399 2.62176 1.29453
RightFoot  -11.193 -0.0761976 0.28582
RightToes  0.00048216 0.542163 -0.142577
Spine  36.7915 -5.19156 13.9228
Spine1  6.52707 -0.186224 -3.19847
HEad  -23.812 47.0507 -39.0372
LeftShoulder1  9.28127 -14.8779 -43.9532
LeftArm  -11.0828 5.9451 -26.4303
LeftForeArm  15.4682 -65.6227 -24.3568
LeftHand  -0.25398 0.0180481 5.50724
RightShoulder  4.81173 9.23631 31.8256
RightArm  -8.62604 -21.4448 22.7581
RightForeArm  26.3201 77.6928 82.0524
RightHand  0.549777 -11.6493 -11.2252
LeftUpLeg  -18.5539 0.864141 -0.697651
LeftLeg  4.48193 -16.1161 -5.1528
LeftFoot  15.7651 3.76889 -16.0241
LeftToes  1.06243e-005 4.65856e-005 -8.18503e-006
105
root  -39.0418 39.8744 -36.3167 -3.79466 -34.2763 -0.298019
RightUpLeg  -10.1469 -12.3459 -3.08206
RightLeg  27.2142 2.40894 1.11289
RightFoot  -10.5319 -0.0744398 0.477804
RightToes  0.00048216 0.542163 -0.142577
Spine  34.5303 -5.18885 15.6953
Spine1  6.91738 0.272892 -4.02026
HEad  -24.61 50.2049 -41.2907
LeftShoulder1  9.25722 -14.4776 -44.8584
LeftArm  -10.5624 5.59418 -26.6945
LeftForeArm  16.3235 -66.1328 -24.9456
LeftHand  -0.25398 0.0180481 5.50724
RightShoulder  4.77468 9.21037 31.6097
RightArm  -8.95162 -23.4068 22.7979
RightForeArm  24.3397 77.6379 81.1126
RightHand  0.55177 -11.612 -11.3637
LeftUpLeg  -17.2945 1.19695 -0.897398
LeftLeg  3.78961 -16.1675 -5.57338
LeftFoot  11.534 4.08215 -20.2703
LeftToes  1.06243e-005 4.65856e-005 -8.18503e-006
106
root  -38.9156 40.037 -36.7921 -4.50551 -27.8766 -0.564972
RightUpLeg  -7.96617 -17.7967 -3.70787
RightLeg  25.1449 1.48883 0.528946
RightFoot  -9.50721 -0.0742736 0.59133
RightToes  0.00048216 0.542163 -0.142577
Spine  32.7541 -5.15614 16.5048
Spine1  6.92842 0.389431 -4.42509
HEad  -24.8549 52.4711 -41.9841
LeftShoulder1  9.2194 -14.0796 -45.7184
LeftArm  -10.4625 5.89199 -26.7975
LeftForeArm  17.8925 -66.9011 -25.8497
LeftHand  -0.25398 0.0180481 5.50724
RightShoulder  4.70301 9.02671 31.588
RightArm  -9.29176 -24.718 22.9267
RightForeArm  21.8912 77.5503 78.845
RightHand  0.545379 -11.7421 -11.0379
LeftUpLeg  -16.1558 2.49877 -1.50339
LeftLeg  5.1637 -14.8448 -5.88672
LeftFoot  7.44278 3.00552 -18.2409
LeftToes  1.06243e-005 4.65856e-005 -8.18503e-006
